<?xml version="1.0" encoding="UTF-8"?>
<svg width="103px" height="38px" viewBox="0 0 103 38" version="1.1" xmlns="http://www.w3.org/2000/svg" xmlns:xlink="http://www.w3.org/1999/xlink">
    <!-- Generator: Sketch 41.1 (35376) - http://www.bohemiancoding.com/sketch -->
    <title>Custom Preset</title>
    <desc>Created with Sketch.</desc>
    <defs></defs>
    <g id="Page-1" stroke="none" stroke-width="1" fill="none" fill-rule="evenodd">
        <g id="Custom-Preset">
            <rect id="Rectangle-230-Copy-4" fill="#FF8D0D" x="0" y="22" width="75" height="13.7755102" rx="6.8877551"></rect>
            <path d="M86.1026721,3.15743095 C86.6434683,2.46861544 87.7095067,2 88.936187,2 C90.2673514,2 91.4093428,2.55184521 91.8962338,3.33808258 C91.9803614,3.35781577 92.0641214,3.37837619 92.1475038,3.39975412 L92.1475038,14.7632474 L94.0365137,14.7632474 L94.0365137,4.04967842 C98.1690986,5.85787877 100.977773,9.81089862 100.879275,14.3964692 C100.869832,14.8360766 100.83392,15.2698704 100.772992,15.6965183 C102.012591,16.3288018 102.725959,17.0701606 102.725959,17.8628932 C102.725959,20.1789758 96.6366418,22.0565317 89.1250879,22.0565317 C81.6135341,22.0565317 75.5242165,20.1789758 75.5242165,17.8628932 C75.5242165,17.1363891 76.1233681,16.4530333 77.1776266,15.8572401 L76.5944417,15.8572401 C76.5393312,15.3789527 76.5160962,14.8913953 76.5267272,14.3964692 C76.6283142,9.6670987 79.7933607,5.61057358 84.2136622,3.88594145 L84.2136622,14.7632474 L86.1026721,14.7632474 L86.1026721,3.15743095 L86.1026721,3.15743095 Z" id="Combined-Shape-Copy-13" fill="#FF8D0D"></path>
            <path d="M100.307233,21.0543735 C99.9578188,23.637304 98.69027,25.9416203 96.8310977,27.6521657 L88.8951047,37.3314144 L80.9349561,27.6543071 C79.1208732,25.9861731 77.8696364,23.7528947 77.4843305,21.2470172 C78.1894171,21.5626294 79.0310901,21.8469875 79.983036,22.0919779 C81.0777716,25.8137316 84.5628985,28.534537 88.6929619,28.534537 C92.8230253,28.534537 96.3081522,25.8137316 97.4028878,22.0919779 C98.5448266,21.7980914 99.5280827,21.4475547 100.307233,21.0543735 L100.307233,21.0543735 Z" id="Combined-Shape-Copy-14" fill="#FFFFFF"></path>
            <path d="M5.83805698,25.2892262 L7.55405698,25.2892262 L7.55405698,28.5232262 L10.579057,25.2892262 L12.823057,25.2892262 L9.35805698,28.9082262 L13.120057,33.0772262 L10.722057,33.0772262 L7.55405698,29.3812262 L7.55405698,33.0772262 L5.83805698,33.0772262 L5.83805698,25.2892262 Z M13.6483008,29.1832262 C13.6483008,28.5598897 13.7527997,27.9952287 13.9618008,27.4892262 C14.1708018,26.9832236 14.4622989,26.5523946 14.8363008,26.1967262 C15.2103027,25.8410577 15.6539649,25.5678938 16.1673008,25.3772262 C16.6806367,25.1865585 17.2416311,25.0912262 17.8503008,25.0912262 C18.4589705,25.0912262 19.0199649,25.1865585 19.5333008,25.3772262 C20.0466367,25.5678938 20.4902989,25.8410577 20.8643008,26.1967262 C21.2383027,26.5523946 21.5297997,26.9832236 21.7388008,27.4892262 C21.9478018,27.9952287 22.0523008,28.5598897 22.0523008,29.1832262 C22.0523008,29.8065626 21.9478018,30.3712236 21.7388008,30.8772262 C21.5297997,31.3832287 21.2383027,31.8140577 20.8643008,32.1697262 C20.4902989,32.5253946 20.0466367,32.7985585 19.5333008,32.9892262 C19.0199649,33.1798938 18.4589705,33.2752262 17.8503008,33.2752262 C17.2416311,33.2752262 16.6806367,33.1798938 16.1673008,32.9892262 C15.6539649,32.7985585 15.2103027,32.5253946 14.8363008,32.1697262 C14.4622989,31.8140577 14.1708018,31.3832287 13.9618008,30.8772262 C13.7527997,30.3712236 13.6483008,29.8065626 13.6483008,29.1832262 Z M15.4303008,29.1832262 C15.4303008,29.5498947 15.4871336,29.8853913 15.6008008,30.1897262 C15.714468,30.494061 15.8776331,30.7580584 16.0903008,30.9817262 C16.3029685,31.2053939 16.5577993,31.3795589 16.8548008,31.5042262 C17.1518023,31.6288935 17.4836323,31.6912262 17.8503008,31.6912262 C18.2169693,31.6912262 18.5487993,31.6288935 18.8458008,31.5042262 C19.1428023,31.3795589 19.3976331,31.2053939 19.6103008,30.9817262 C19.8229685,30.7580584 19.9861336,30.494061 20.0998008,30.1897262 C20.213468,29.8853913 20.2703008,29.5498947 20.2703008,29.1832262 C20.2703008,28.823891 20.213468,28.4902277 20.0998008,28.1822262 C19.9861336,27.8742246 19.8229685,27.6083939 19.6103008,27.3847262 C19.3976331,27.1610584 19.1428023,26.9868935 18.8458008,26.8622262 C18.5487993,26.7375589 18.2169693,26.6752262 17.8503008,26.6752262 C17.4836323,26.6752262 17.1518023,26.7375589 16.8548008,26.8622262 C16.5577993,26.9868935 16.3029685,27.1610584 16.0903008,27.3847262 C15.8776331,27.6083939 15.714468,27.8742246 15.6008008,28.1822262 C15.4871336,28.4902277 15.4303008,28.823891 15.4303008,29.1832262 Z M23.5705446,25.2892262 L26.1665446,25.2892262 L27.9595446,30.3712262 L27.9815446,30.3712262 L29.7855446,25.2892262 L32.3705446,25.2892262 L32.3705446,33.0772262 L30.6545446,33.0772262 L30.6545446,27.1042262 L30.6325446,27.1042262 L28.5865446,33.0772262 L27.2775446,33.0772262 L25.3085446,27.1042262 L25.2865446,27.1042262 L25.2865446,33.0772262 L23.5705446,33.0772262 L23.5705446,25.2892262 Z M34.3067884,25.2892262 L37.1997884,25.2892262 C37.6031238,25.2892262 37.9844533,25.3258925 38.3437884,25.3992262 C38.7031235,25.4725599 39.0166204,25.5990586 39.2842884,25.7787262 C39.5519564,25.9583937 39.764621,26.2003913 39.9222884,26.5047262 C40.0799559,26.809061 40.1587884,27.1922239 40.1587884,27.6542262 C40.1587884,28.1088951 40.0854558,28.4902246 39.9387884,28.7982262 C39.792121,29.1062277 39.5904564,29.3518919 39.3337884,29.5352262 C39.0771205,29.7185604 38.7727902,29.8487258 38.4207884,29.9257262 C38.0687867,30.0027265 37.6874571,30.0412262 37.2767884,30.0412262 L36.0227884,30.0412262 L36.0227884,33.0772262 L34.3067884,33.0772262 L34.3067884,25.2892262 Z M36.0227884,28.5892262 L37.1667884,28.5892262 C37.3207892,28.5892262 37.4692877,28.5745596 37.6122884,28.5452262 C37.7552891,28.5158927 37.8836212,28.4663932 37.9972884,28.3967262 C38.1109556,28.3270591 38.2026214,28.2317268 38.2722884,28.1107262 C38.3419554,27.9897256 38.3767884,27.8375604 38.3767884,27.6542262 C38.3767884,27.4562252 38.3309555,27.2967268 38.2392884,27.1757262 C38.1476213,27.0547256 38.0302891,26.9612265 37.8872884,26.8952262 C37.7442877,26.8292258 37.5847893,26.7870596 37.4087884,26.7687262 C37.2327875,26.7503927 37.0641226,26.7412262 36.9027884,26.7412262 L36.0227884,26.7412262 L36.0227884,28.5892262 Z M48.1560322,30.0742262 C48.1560322,30.5362285 48.0863663,30.9615576 47.9470322,31.3502262 C47.8076982,31.7388948 47.6005336,32.0762247 47.3255322,32.3622262 C47.0505308,32.6482276 46.7077009,32.871892 46.2970322,33.0332262 C45.8863635,33.1945603 45.4133682,33.2752262 44.8780322,33.2752262 C44.3353628,33.2752262 43.8587009,33.1945603 43.4480322,33.0332262 C43.0373635,32.871892 42.6945336,32.6482276 42.4195322,32.3622262 C42.1445308,32.0762247 41.9373663,31.7388948 41.7980322,31.3502262 C41.6586982,30.9615576 41.5890322,30.5362285 41.5890322,30.0742262 L41.5890322,25.2892262 L43.3050322,25.2892262 L43.3050322,30.0082262 C43.3050322,30.2502274 43.3435318,30.4738918 43.4205322,30.6792262 C43.4975326,30.8845605 43.6056982,31.0623921 43.7450322,31.2127262 C43.8843663,31.3630602 44.0511979,31.4803924 44.2455322,31.5647262 C44.4398665,31.6490599 44.6506978,31.6912262 44.8780322,31.6912262 C45.1053667,31.6912262 45.3143646,31.6490599 45.5050322,31.5647262 C45.6956998,31.4803924 45.8606982,31.3630602 46.0000322,31.2127262 C46.1393663,31.0623921 46.2475318,30.8845605 46.3245322,30.6792262 C46.4015326,30.4738918 46.4400322,30.2502274 46.4400322,30.0082262 L46.4400322,25.2892262 L48.1560322,25.2892262 L48.1560322,30.0742262 Z M51.599276,26.8072262 L49.377276,26.8072262 L49.377276,25.2892262 L55.537276,25.2892262 L55.537276,26.8072262 L53.315276,26.8072262 L53.315276,33.0772262 L51.599276,33.0772262 L51.599276,26.8072262 Z M56.8245198,25.2892262 L62.1155198,25.2892262 L62.1155198,26.8732262 L58.5405198,26.8732262 L58.5405198,28.3252262 L61.9175198,28.3252262 L61.9175198,29.9092262 L58.5405198,29.9092262 L58.5405198,31.4932262 L62.3135198,31.4932262 L62.3135198,33.0772262 L56.8245198,33.0772262 L56.8245198,25.2892262 Z M64.0407637,25.2892262 L67.0547637,25.2892262 C67.4507656,25.2892262 67.8265952,25.3277258 68.1822637,25.4047262 C68.5379321,25.4817265 68.8495957,25.6100586 69.1172637,25.7897262 C69.3849317,25.9693937 69.5975962,26.2113913 69.7552637,26.5157262 C69.9129311,26.820061 69.9917637,27.1995572 69.9917637,27.6542262 C69.9917637,28.2042289 69.8487651,28.6717242 69.5627637,29.0567262 C69.2767622,29.4417281 68.8587664,29.685559 68.3087637,29.7882262 L70.2887637,33.0772262 L68.2317637,33.0772262 L66.6037637,29.9642262 L65.7567637,29.9642262 L65.7567637,33.0772262 L64.0407637,33.0772262 L64.0407637,25.2892262 Z M65.7567637,28.5122262 L66.7687637,28.5122262 C66.9227644,28.5122262 67.0859295,28.5067262 67.2582637,28.4957262 C67.4305979,28.4847261 67.5864296,28.4517264 67.7257637,28.3967262 C67.8650977,28.3417259 67.9805965,28.2555601 68.0722637,28.1382262 C68.1639308,28.0208922 68.2097637,27.8558939 68.2097637,27.6432262 C68.2097637,27.4452252 68.1694307,27.2875601 68.0887637,27.1702262 C68.0080966,27.0528922 67.9054309,26.9630598 67.7807637,26.9007262 C67.6560964,26.8383925 67.5130978,26.7962263 67.3517637,26.7742262 C67.1904295,26.7522261 67.0327644,26.7412262 66.8787637,26.7412262 L65.7567637,26.7412262 L65.7567637,28.5122262 Z" id="KOMPUTER" fill="#000000"></path>
            <path d="M6.26336454,7.58848857 L3.10929929,7.58848857 L3.10929929,5.43373113 L11.8532426,5.43373113 L11.8532426,7.58848857 L8.6991773,7.58848857 L8.6991773,16.4885737 L6.26336454,16.4885737 L6.26336454,7.58848857 Z M22.4084312,12.2259013 C22.4084312,12.8817004 22.3095424,13.4854428 22.1117617,14.0371467 C21.913981,14.5888507 21.6199168,15.0676809 21.2295603,15.4736517 C20.8392037,15.8796225 20.3525665,16.1971078 19.769634,16.4261169 C19.1867016,16.6551261 18.5152984,16.769629 17.7554043,16.769629 C16.9851006,16.769629 16.3084927,16.6551261 15.7255603,16.4261169 C15.1426278,16.1971078 14.6559906,15.8796225 14.265634,15.4736517 C13.8752775,15.0676809 13.5812133,14.5888507 13.3834326,14.0371467 C13.185652,13.4854428 13.0867631,12.8817004 13.0867631,12.2259013 L13.0867631,5.43373113 L15.5225759,5.43373113 L15.5225759,12.1322162 C15.5225759,12.47573 15.577225,12.7932152 15.6865248,13.0846815 C15.7958247,13.3761477 15.9493626,13.6285745 16.1471433,13.8419694 C16.3449239,14.0553643 16.5817367,14.221914 16.8575887,14.3416233 C17.1334406,14.4613327 17.4327095,14.5211864 17.7554043,14.5211864 C18.078099,14.5211864 18.3747655,14.4613327 18.6454128,14.3416233 C18.91606,14.221914 19.1502704,14.0553643 19.3480511,13.8419694 C19.5458317,13.6285745 19.6993697,13.3761477 19.8086695,13.0846815 C19.9179693,12.7932152 19.9726184,12.47573 19.9726184,12.1322162 L19.9726184,5.43373113 L22.4084312,5.43373113 L22.4084312,12.2259013 Z M24.7505589,5.43373113 L27.1863716,5.43373113 L27.1863716,10.0243013 L31.4802723,5.43373113 L34.665566,5.43373113 L29.7470979,10.5707978 L35.0871489,16.4885737 L31.6832567,16.4885737 L27.1863716,11.2422077 L27.1863716,16.4885737 L24.7505589,16.4885737 L24.7505589,5.43373113 Z M39.5684199,5.43373113 L41.5826496,5.43373113 L46.3918184,16.4885737 L43.643722,16.4885737 L42.6912567,14.146446 L38.397356,14.146446 L37.4761191,16.4885737 L34.7904794,16.4885737 L39.5684199,5.43373113 Z M40.5052709,8.65025311 L39.1624511,12.0853737 L41.863705,12.0853737 L40.5052709,8.65025311 Z M47.5004255,5.43373113 L50.8106326,5.43373113 L55.5105021,13.1159099 L55.5417305,13.1159099 L55.5417305,5.43373113 L57.9775433,5.43373113 L57.9775433,16.4885737 L54.7922496,16.4885737 L49.9674667,8.61902474 L49.9362383,8.61902474 L49.9362383,16.4885737 L47.5004255,16.4885737 L47.5004255,5.43373113 Z M70.234678,15.7078645 C69.5164219,16.0826068 68.7669486,16.3532499 67.9862355,16.519802 C67.2055223,16.6863542 66.4092069,16.769629 65.5972652,16.769629 C64.7332761,16.769629 63.9369606,16.6343074 63.208295,16.3636602 C62.4796295,16.093013 61.8498636,15.7052646 61.3189787,15.2004035 C60.7880938,14.6955423 60.3743221,14.0839929 60.0776511,13.3657368 C59.7809801,12.6474807 59.6326468,11.8459606 59.6326468,10.9611524 C59.6326468,10.0763442 59.7809801,9.27482408 60.0776511,8.55656801 C60.3743221,7.83831193 60.7880938,7.22676249 61.3189787,6.72190134 C61.8498636,6.21704019 62.4796295,5.82929182 63.208295,5.5586446 C63.9369606,5.28799739 64.7332761,5.15267581 65.5972652,5.15267581 C66.4820735,5.15267581 67.2966053,5.25937167 68.0408851,5.47276659 C68.785165,5.68616151 69.4383518,6.05309117 70.0004652,6.57356659 L68.282905,8.44726872 C67.9498007,8.10375494 67.575064,7.84352114 67.1586837,7.6665595 C66.7423034,7.48959785 66.2218357,7.40111836 65.5972652,7.40111836 C65.0767898,7.40111836 64.6057666,7.48959785 64.1841816,7.6665595 C63.7625965,7.84352114 63.4008715,8.09074325 63.0989957,8.40823325 C62.79712,8.72572326 62.5655119,9.10306227 62.4041645,9.54026162 C62.2428172,9.97746097 62.1621447,10.4510865 62.1621447,10.9611524 C62.1621447,11.4816278 62.2428172,11.9578557 62.4041645,12.3898503 C62.5655119,12.8218449 62.79712,13.1965815 63.0989957,13.5140716 C63.4008715,13.8315616 63.7625965,14.0787837 64.1841816,14.2557453 C64.6057666,14.432707 65.0767898,14.5211864 65.5972652,14.5211864 C66.1281502,14.5211864 66.5861617,14.4613327 66.9713135,14.3416233 C67.3564653,14.221914 67.6635412,14.0996041 67.8925504,13.97469 L67.8925504,12.1790588 L65.9095489,12.1790588 L65.9095489,9.93061623 L70.234678,9.93061623 L70.234678,15.7078645 Z" id="TUKANG" fill="#FFFFFF"></path>
        </g>
    </g>
</svg>